# xmcd
#
# Track frame offsets:
# 150
# 17385
# 30905
# 49572
# 76795
# 89457
# 102170
# 114462
# 127470
# 150712
# 168107
# 178237
# 194020
# 210562
# 223437
#
# Disc length: 3211 seconds
#
#
# Revision: 0
# Processed by: cddbd v1.5.2PL0 Copyright (c) Steve Scherf et al.
# Submitted via: FreeRIP 2.951 
#
DISCID=c80c890f
DTITLE=Diverse - Country Szene Ost
DYEAR=1994
DGENRE=Country
TTITLE0=Es ist wieder Country Time
TTITLE1=In America
TTITLE2=Tramper Rudi
TTITLE3=100%ig Countryfan
TTITLE4=Country Girl
TTITLE5=Heute fährt er für Geld
TTITLE6=Allgemeiner Anruf
TTITLE7=Beifahrer
TTITLE8=Die Band
TTITLE9=Sieben Pfennig
TTITLE10=Wiedermal ein Wochenende
TTITLE11=Stell dein Herz auf Empfang
TTITLE12=Ich nehm dich mit auf meine Burg
TTITLE13=Lilly´s Saloon
TTITLE14=Die Kleinen Cowboys
EXTD=
EXTT0=Bibers Farm
EXTT1=Andy Glandt and Greenhorn
EXTT2=Saxon Cowboys
EXTT3=Western Union
EXTT4=Hufnagel
EXTT5=Mark Davis
EXTT6=Ecke and Co
EXTT7=Beifahrer
EXTT8=Flemming Band
EXTT9=Westend
EXTT10=Country Team
EXTT11=Wilk and Friends
EXTT12=Gudrun Lange and Kaktus
EXTT13=Catch Bolder
EXTT14=Wild Eagle
PLAYORDER=
